<svg width="100" height="100" viewBox="0 0 100 100" fill="none" xmlns="http://www.w3.org/2000/svg">
<path d="M57.1885 23.5943C54.5322 27.6568 47.6572 31.8755 41.5635 35.0005C41.876 35.313 42.501 36.2505 42.8135 36.2505C44.5322 35.4693 46.251 34.8443 47.9697 34.063C51.4072 32.5005 54.8447 30.4693 57.9697 28.1255C64.2197 23.1255 66.5635 8.12552 71.0947 7.81302C73.751 7.81302 76.251 11.7193 78.126 13.438L80.7822 10.7818C80.9385 10.6255 78.751 8.59427 78.5947 8.43802C75.9385 5.78177 72.8135 2.96927 68.5947 4.53177C62.9697 6.71927 60.3135 19.063 57.1885 23.5943V23.5943ZM71.7197 7.96927C71.7197 7.96927 71.876 7.96927 71.7197 7.96927V7.96927ZM69.6885 8.28177C69.5322 8.28177 69.5322 8.28177 69.6885 8.28177Z" fill="#93A2AA"/>
<path d="M3.59422 95.1563C3.12547 95.7813 2.96922 96.4063 3.28172 96.7188C3.59422 97.0313 4.37547 96.875 4.84422 96.4063L8.59422 93.75L6.25047 91.4062L3.59422 95.1563Z" fill="#93A2AA"/>
<path d="M44.2188 41.0937L58.9063 55.7812L95.4688 16.7187L83.2813 4.53125L44.2188 41.0937Z" fill="#42ADE2"/>
<path d="M14.6436 73.117L45.4701 42.292L57.6232 54.4451L26.7967 85.2701L14.6436 73.117Z" fill="#42ADE2"/>
<path d="M5 90.1563L9.84375 95L26.875 85.3125L14.6875 73.125L5 90.1563Z" fill="#C7D3D8"/>
<path d="M48.75 36.5625L63.4375 51.25L58.9063 55.7813L44.2188 41.0937L48.75 36.5625Z" fill="#C7D3D8"/>
<path d="M84.0625 5.3125L94.6875 15.9375C97.6562 12.9687 97.6562 8.28125 94.6875 5.3125C91.7187 2.34375 87.0313 2.34375 84.0625 5.3125" fill="#42ADE2"/>
<path d="M81.1768 5.85586L83.3861 3.64648L96.4236 16.684L94.2143 18.8934L81.1768 5.85586Z" fill="#C7D3D8"/>
</svg>
