<svg width="100" height="100" viewBox="0 0 100 100" fill="none" xmlns="http://www.w3.org/2000/svg">
<path d="M50.0006 44.3753L26.459 20.8337L54.1673 3.54199L79.7923 20.8337L50.0006 44.3753Z" fill="#FF8A65"/>
<path d="M50.0006 44.3753L26.459 20.8337L35.4173 9.79199L79.7923 20.8337L50.0006 44.3753Z" fill="#FFAB91"/>
<path d="M63.75 91.667H36.25C32.0833 91.667 28.5417 88.7503 27.9167 84.5837L18.75 22.917H81.25L71.875 84.5837C71.25 88.7503 67.7083 91.667 63.75 91.667Z" fill="#B39DDB"/>
<path d="M79.167 27.0833H20.8337C18.542 27.0833 16.667 25.2083 16.667 22.9167C16.667 20.625 18.542 18.75 20.8337 18.75H79.167C81.4586 18.75 83.3336 20.625 83.3336 22.9167C83.3336 25.2083 81.4586 27.0833 79.167 27.0833Z" fill="#7E57C2"/>
</svg>
