<?xml version="1.0" standalone="no"?>
<!DOCTYPE svg PUBLIC "-//W3C//DTD SVG 20010904//EN"
 "http://www.w3.org/TR/2001/REC-SVG-20010904/DTD/svg10.dtd">
<svg version="1.0" xmlns="http://www.w3.org/2000/svg"
 width="1227.000000pt" height="1227.000000pt" viewBox="0 0 1227.000000 1227.000000"
 preserveAspectRatio="xMidYMid meet">
<metadata>
Created by potrace 1.14, written by Peter Selinger 2001-2017
</metadata>
<g transform="translate(0.000000,1227.000000) scale(0.100000,-0.100000)"
fill="#000000" stroke="none">
<path d="M3740 9444 c0 -3 25 -16 56 -30 76 -34 611 -289 762 -363 67 -34 127
-61 133 -61 5 0 24 -8 42 -17 28 -16 78 -19 442 -24 317 -5 432 -10 505 -23
423 -74 655 -227 832 -546 77 -140 142 -342 167 -527 6 -43 13 -90 16 -105 l5
-28 -685 0 -685 0 2 -177 3 -177 218 -85 217 -85 0 -677 0 -676 -87 -12 c-158
-22 -380 -30 -860 -31 l-473 0 0 1546 0 1545 -162 78 c-527 253 -627 301 -762
367 -82 41 -151 74 -153 74 -2 0 -3 -79 -3 -175 0 -170 1 -175 23 -189 12 -8
123 -47 247 -86 124 -40 235 -79 248 -86 l22 -14 0 -1488 0 -1487 -62 -22
c-35 -12 -156 -55 -270 -94 l-208 -71 0 -189 0 -189 26 -11 c29 -11 2343 -5
2427 7 l47 6 0 -585 0 -584 -77 -33 c-43 -17 -142 -59 -220 -92 l-143 -60 0
-169 0 -169 705 0 705 0 0 169 0 168 -225 94 -225 94 0 547 0 547 798 3 c717
4 807 6 892 22 510 97 797 378 897 881 26 132 26 529 -1 670 -33 176 -98 346
-179 465 -46 67 -154 176 -224 226 -73 53 -202 114 -298 143 -156 45 -226 53
-571 58 l-332 5 -11 112 c-50 470 -210 861 -448 1101 -279 280 -666 456 -1115
504 -100 11 -1958 16 -1958 5z m2965 -2276 c-16 -251 -69 -511 -138 -674 -58
-139 -159 -294 -241 -373 l-36 -35 0 597 0 597 211 0 212 0 -8 -112z m1194 88
c162 -42 303 -151 369 -287 67 -140 100 -383 82 -610 -35 -431 -200 -615 -590
-659 -60 -7 -280 -10 -592 -8 l-498 3 62 50 c72 58 170 170 234 268 178 270
287 668 310 1136 l7 133 276 -5 c211 -3 291 -8 340 -21z"/>
</g>
</svg>
